<svg width="113" height="34" viewBox="0 0 113 34" fill="none" xmlns="http://www.w3.org/2000/svg">
<g clip-path="url(#clip0_3_1242)">
<path d="M54.557 1.7039V5.7925H49.3511C48.7626 5.7925 48.2921 6.26291 48.2921 6.85149V21.7341C48.2921 22.1753 47.9392 22.5283 47.4979 22.5283H43.4392C42.998 22.5283 42.645 22.1753 42.645 21.7341V6.85149C42.645 6.26291 42.1746 5.7925 41.586 5.7925H36.4093V1.7039C36.4093 1.26266 36.7331 0.909668 37.1743 0.909668H53.7628C54.2041 0.909668 54.557 1.29183 54.557 1.7039Z" fill="#344049"/>
<path d="M64.2928 0.909668V8.64488C64.2928 9.11529 64.7049 9.4982 65.1753 9.4982H69.0283C69.4987 9.4982 69.8816 9.11603 69.8816 8.64488V0.909668H74.7345C75.1758 0.909668 75.5288 1.26266 75.5288 1.7039V21.7341C75.5288 22.1753 75.1758 22.5283 74.7345 22.5283H69.8816V15.2635C69.8816 14.7931 69.4995 14.4102 68.9991 14.4102H65.1753C64.7049 14.4102 64.2928 14.7924 64.2928 15.2635V22.4991H59.4399C58.9986 22.4991 58.6456 22.1462 58.6456 21.7049V1.7039C58.6456 1.26266 58.9986 0.909668 59.4399 0.909668H64.2928Z" fill="#344049"/>
<path d="M88.7638 17.6754H90.9401V21.7341C90.9401 22.1753 90.5871 22.5283 90.1459 22.5283H80.4692C80.028 22.5283 79.675 22.1753 79.675 21.7341V17.6754H81.8513C82.2043 17.6754 82.4982 17.3815 82.4982 17.0285V6.41024C82.4982 6.05725 82.2334 5.7925 81.8804 5.7925H79.6742V1.7039C79.6742 1.26266 80.0272 0.909668 80.4685 0.909668H90.1743C90.6155 0.909668 90.9394 1.26266 90.9394 1.7039V5.7925H88.7332C88.3802 5.7925 88.1154 6.05725 88.1154 6.41024V17.0285C88.1154 17.3523 88.4093 17.6754 88.7623 17.6754H88.7638Z" fill="#344049"/>
<path d="M104.176 9.38066C102.088 9.20417 100.705 8.85117 100.705 7.49828V7.02787C100.705 6.14538 101.44 5.41023 102.323 5.41023H105.205C106.087 5.41023 106.823 6.14538 106.823 7.02787V7.49828H111.352C111.794 7.49828 112.147 7.14528 112.147 6.73321V6.64496C111.999 5.17465 111.323 3.76267 110.235 2.76277C108.941 1.55721 107.235 0.909554 105.441 0.939468H101.764C100.205 0.939468 98.6753 1.43979 97.4406 2.40978C95.882 3.64526 94.9696 5.52764 95.0287 7.52744C95.0287 12.0865 99.1173 13.5568 103.176 13.8514C104.794 13.9688 107.206 14.1162 107.206 15.9694V16.528C107.206 17.4105 106.47 18.1457 105.588 18.1457H102.029C101.146 18.1457 100.411 17.4105 100.411 16.528V15.9694H95.6165C95.1753 15.9694 94.8223 16.3224 94.8223 16.7345V16.8818C94.9696 18.4994 95.793 19.9705 97.0869 20.9704C98.4398 22.0294 100.057 22.588 101.763 22.5589H105.94C107.41 22.5589 108.882 22.1468 110.146 21.3234C111.852 20.147 112.999 18.4411 112.999 16.1466C112.999 10.9699 108.852 9.79349 104.175 9.38141L104.176 9.38066Z" fill="#344049"/>
<path d="M30.4799 15.7441C29.0253 14.988 27.2222 15.599 26.4661 17.0821C26.4661 17.1696 26.4078 17.2271 26.4078 17.2855L22.4523 16.7328C22.4523 16.9071 22.4523 17.1112 22.394 17.3146L20.3867 17.0237C20.4742 16.2968 20.3867 15.5983 20.2124 14.9005C19.834 13.6209 18.9328 12.5447 17.7692 11.8754L18.6419 10.0139C18.8162 10.1014 19.0203 10.1882 19.1654 10.334L20.8526 6.81456C22.4815 7.13465 24.0228 6.05847 24.3721 4.45877C24.7213 2.85908 23.6452 1.31773 22.0455 0.96847C20.4458 0.619215 18.8753 1.72457 18.526 3.32426C18.3517 4.31294 18.6427 5.30237 19.3696 6.05847C19.4279 6.1168 19.4571 6.14597 19.5147 6.17513L17.8275 9.6946C18.0017 9.75294 18.2059 9.83969 18.4093 9.95636L17.5074 11.7886C16.3437 11.2651 15.0349 11.1776 13.8137 11.4977C12.9992 11.7595 12.3307 12.1671 11.7196 12.7482L10.265 11.3519C10.4101 11.2068 10.6435 11.0026 10.7885 10.8867L7.93842 8.12333C8.75285 6.69789 8.22934 4.86561 6.77473 4.08035C5.34929 3.26592 3.51702 3.78943 2.73175 5.24404C1.91732 6.66947 2.44083 8.50175 3.89544 9.28702C4.79737 9.75219 5.84438 9.78136 6.7164 9.28702C6.77473 9.28702 6.83307 9.22868 6.86149 9.19952L9.68245 11.9629C9.82753 11.7595 10.0609 11.556 10.0609 11.556L11.5731 12.9232C10.3226 14.2611 9.88587 16.1517 10.4677 17.8965C10.526 18.1582 10.6128 18.3617 10.7586 18.6234L8.95552 19.5829C8.86802 19.4087 8.78127 19.2045 8.6646 19.0011L5.17429 20.8625C4.06894 19.6121 2.14916 19.5538 0.957061 20.6883C-0.264209 21.7936 -0.322543 23.7134 0.811974 24.9055C1.91732 26.1268 3.8371 26.1851 5.02921 25.0506C5.7853 24.3813 6.10539 23.3342 5.93114 22.3456C5.93114 22.2872 5.93114 22.2289 5.8728 22.1713L9.36311 20.3099C9.24644 20.1648 9.15969 19.9606 9.04302 19.7863L10.817 18.8268C11.8348 20.6883 13.9004 21.7061 15.9945 21.4444L16.3729 23.4225C16.1986 23.4225 15.966 23.4808 15.7619 23.4808L16.4312 27.4071C14.9482 28.0765 14.2788 29.8504 14.9766 31.3626C15.646 32.8456 17.4199 33.515 18.9321 32.8172C20.4151 32.1479 21.0845 30.3739 20.3867 28.8617C19.9799 27.9598 19.1071 27.3204 18.1177 27.1454H17.9434L17.2741 23.2191C17.0706 23.2774 16.8672 23.3066 16.6631 23.3642L16.2846 21.386C16.4589 21.386 16.6631 21.3277 16.8665 21.241C18.7279 20.6591 20.0659 19.0886 20.4151 17.198L22.4224 17.4889C22.3641 17.6923 22.3641 17.9249 22.2773 18.1291L26.2036 18.6817C26.3779 20.3398 27.8908 21.5027 29.5197 21.2993C31.1777 21.0959 32.3406 19.6121 32.1372 17.9832C32.0497 17.0521 31.4103 16.1801 30.5084 15.7142L30.4792 15.7434L30.4799 15.7441Z" fill="#2D51A3"/>
<path d="M38.1219 32.8002V27.9249H36.6441C36.5626 27.9249 36.5035 27.8957 36.4661 27.8381C36.4287 27.7805 36.41 27.6848 36.41 27.5517V27.3258C36.41 27.1927 36.4287 27.097 36.4661 27.0394C36.5035 26.9818 36.5633 26.9526 36.6441 26.9526H40.7372C40.8179 26.9526 40.8778 26.9818 40.9152 27.0394C40.9526 27.0977 40.972 27.1927 40.972 27.3258V27.5517C40.972 27.6848 40.9533 27.7805 40.9152 27.8381C40.8778 27.8964 40.8179 27.9249 40.7372 27.9249H39.2684V32.8002C39.2684 32.9685 39.115 33.0523 38.8077 33.0523H38.5818C38.2744 33.0523 38.1211 32.9685 38.1211 32.8002H38.1219Z" fill="#344049"/>
<path d="M43.953 32.2962C43.4781 31.763 43.2403 30.9927 43.2403 29.9846C43.2403 28.9764 43.4781 28.2158 43.953 27.6856C44.4279 27.1554 45.1092 26.8906 45.9954 26.8906C46.8817 26.8906 47.5615 27.1546 48.0334 27.6819C48.5053 28.2091 48.7416 28.9772 48.7416 29.9846C48.7416 30.9919 48.5053 31.763 48.0334 32.2962C47.5607 32.8295 46.8817 33.0957 45.9954 33.0957C45.1092 33.0957 44.4279 32.8295 43.953 32.2962ZM47.1644 31.5745C47.4336 31.2096 47.5682 30.6793 47.5682 29.9838C47.5682 29.2883 47.4351 28.7618 47.1681 28.4021C46.9019 28.0431 46.5107 27.8636 45.9947 27.8636C45.4787 27.8636 45.0868 28.0431 44.8168 28.4021C44.5476 28.761 44.413 29.2883 44.413 29.9838C44.413 30.6793 44.5476 31.2096 44.8168 31.5745C45.086 31.9395 45.4787 32.122 45.9947 32.122C46.5107 32.122 46.8944 31.9395 47.1636 31.5745H47.1644Z" fill="#344049"/>
<path d="M51.5917 32.8003V27.2728C51.5917 27.1628 51.6164 27.0813 51.6658 27.0297C51.7151 26.9773 51.7944 26.9512 51.9051 26.9512H53.5213C54.2452 26.9512 54.7829 27.0843 55.1337 27.3513C55.4844 27.6175 55.6594 28.0176 55.6594 28.5509C55.6594 28.8867 55.5697 29.1768 55.3902 29.4199C55.2107 29.6629 54.9646 29.8454 54.6513 29.9673V30.0017C54.7784 30.0481 54.9003 30.1513 55.0162 30.3106C55.1322 30.4699 55.2361 30.6658 55.3289 30.8969L56.0677 32.7397C56.0909 32.8212 56.1021 32.8698 56.1021 32.8878C56.1021 32.9977 55.9458 33.053 55.6325 33.053H55.3715C55.1165 33.053 54.9661 32.9977 54.9198 32.8878L54.2422 31.1841C54.1382 30.9463 54.0148 30.7818 53.8727 30.689C53.7307 30.5963 53.5153 30.5499 53.2251 30.5499H52.73V32.801C52.73 32.9693 52.5767 33.053 52.2693 33.053H52.0517C51.7443 33.053 51.591 32.9693 51.591 32.801L51.5917 32.8003ZM53.6693 29.5672C53.8892 29.5672 54.0807 29.482 54.2429 29.3107C54.4052 29.1402 54.486 28.9383 54.486 28.7064C54.486 28.4574 54.4075 28.2644 54.2512 28.1283C54.0949 27.9922 53.8802 27.9241 53.608 27.9241H52.73V29.5665H53.6686L53.6693 29.5672Z" fill="#344049"/>
<path d="M58.6314 32.8003V27.2728C58.6314 27.1628 58.6561 27.0813 58.7055 27.0297C58.7548 26.9773 58.8341 26.9512 58.9448 26.9512H60.5609C61.2849 26.9512 61.8226 27.0843 62.1733 27.3513C62.5241 27.6175 62.6991 28.0176 62.6991 28.5509C62.6991 28.8867 62.6094 29.1768 62.4299 29.4199C62.2504 29.6629 62.0043 29.8454 61.691 29.9673V30.0017C61.8181 30.0481 61.94 30.1513 62.0559 30.3106C62.1719 30.4699 62.2758 30.6658 62.3685 30.8969L63.1074 32.7397C63.1306 32.8212 63.1418 32.8698 63.1418 32.8878C63.1418 32.9977 62.9855 33.053 62.6729 33.053H62.4119C62.1569 33.053 62.0066 32.9977 61.9602 32.8878L61.2826 31.1841C61.1779 30.9463 61.0553 30.7818 60.9132 30.689C60.7711 30.5963 60.5557 30.5499 60.2655 30.5499H59.7704V32.801C59.7704 32.9693 59.6171 33.053 59.3098 33.053H59.0921C58.7848 33.053 58.6314 32.9693 58.6314 32.801V32.8003ZM60.7083 29.5672C60.9281 29.5672 61.1196 29.482 61.2819 29.3107C61.4442 29.1402 61.5249 28.9383 61.5249 28.7064C61.5249 28.4574 61.4464 28.2644 61.2901 28.1283C61.1338 27.9922 60.9192 27.9241 60.6469 27.9241H59.7689V29.5665H60.7075L60.7083 29.5672Z" fill="#344049"/>
<path d="M66.8438 32.8004V30.0452L65.0885 27.299C65.031 27.2123 65.0018 27.1457 65.0018 27.0994C65.0018 26.9894 65.1701 26.9341 65.5059 26.9341H65.7841C66.0271 26.9341 66.1842 26.9864 66.2537 27.0904L67.4443 29.0461L68.6439 27.0822C68.7135 26.9834 68.8728 26.9341 69.1218 26.9341H69.3477C69.6662 26.9341 69.8255 26.9894 69.8255 27.0994C69.8255 27.1517 69.7994 27.2183 69.747 27.299L67.9828 30.0714V32.8004C67.9828 32.9686 67.8295 33.0524 67.5221 33.0524H67.3045C66.9971 33.0524 66.8438 32.9686 66.8438 32.8004Z" fill="#344049"/>
<path d="M76.1256 32.8004V27.1861C76.1256 27.0178 76.2789 26.9341 76.5863 26.9341H76.8121C77.1195 26.9341 77.2728 27.0178 77.2728 27.1861V29.4372H79.8971V27.1861C79.8971 27.0178 80.0504 26.9341 80.3578 26.9341H80.5836C80.891 26.9341 81.0443 27.0178 81.0443 27.1861V32.8004C81.0443 32.9686 80.891 33.0524 80.5836 33.0524H80.3578C80.0504 33.0524 79.8971 32.9686 79.8971 32.8004V30.4192H77.2728V32.8004C77.2728 32.9686 77.1195 33.0524 76.8121 33.0524H76.5863C76.2789 33.0524 76.1256 32.9686 76.1256 32.8004Z" fill="#344049"/>
<path d="M83.5474 32.8779C83.5474 32.8607 83.5587 32.8114 83.5818 32.7298L85.5457 27.0984C85.5801 26.9884 85.7282 26.9331 85.9892 26.9331H86.3714C86.6264 26.9331 86.7737 26.9884 86.8149 27.0984L88.7788 32.7298C88.796 32.7882 88.805 32.8368 88.805 32.8779C88.805 32.9938 88.6659 33.0514 88.3876 33.0514H88.1184C87.8634 33.0514 87.7153 32.9961 87.6749 32.8861L87.2748 31.6955H85.0499L84.6498 32.8861C84.6094 32.9961 84.4815 33.0514 84.2676 33.0514H84.0246C83.706 33.0514 83.5467 32.9938 83.5467 32.8779H83.5474ZM86.9458 30.7226L86.3116 28.8103C86.2652 28.6771 86.2248 28.4976 86.1897 28.271H86.1553C86.1493 28.3062 86.1351 28.381 86.1119 28.4969C86.0887 28.6128 86.0595 28.7175 86.0251 28.8095L85.373 30.7218H86.9458V30.7226Z" fill="#344049"/>
<path d="M91.2647 32.8003V27.2728C91.2647 27.1628 91.2894 27.0813 91.3387 27.0297C91.3881 26.9773 91.4674 26.9512 91.5781 26.9512H93.1942C93.9181 26.9512 94.4558 27.0843 94.8066 27.3513C95.1574 27.6175 95.3324 28.0176 95.3324 28.5509C95.3324 28.8867 95.2426 29.1768 95.0631 29.4199C94.8836 29.6629 94.6376 29.8454 94.3242 29.9673V30.0017C94.4514 30.0481 94.5733 30.1513 94.6892 30.3106C94.8051 30.4699 94.9091 30.6658 95.0018 30.8969L95.7407 32.7397C95.7639 32.8212 95.7751 32.8698 95.7751 32.8878C95.7751 32.9977 95.6188 33.053 95.3062 33.053H95.0452C94.7902 33.053 94.6398 32.9977 94.5935 32.8878L93.9159 31.1841C93.8112 30.9463 93.6885 30.7818 93.5464 30.689C93.4043 30.5963 93.189 30.5499 92.8988 30.5499H92.4037V32.801C92.4037 32.9693 92.2504 33.053 91.943 33.053H91.7254C91.418 33.053 91.2647 32.9693 91.2647 32.801V32.8003ZM93.3415 29.5672C93.5614 29.5672 93.7529 29.482 93.9151 29.3107C94.0774 29.1402 94.1582 28.9383 94.1582 28.7064C94.1582 28.4574 94.0797 28.2644 93.9234 28.1283C93.7671 27.9922 93.5524 27.9241 93.2802 27.9241H92.4022V29.5665H93.3408L93.3415 29.5672Z" fill="#344049"/>
<path d="M98.3044 32.8003V27.2728C98.3044 27.1628 98.3291 27.0813 98.3784 27.0297C98.4278 26.9773 98.5071 26.9512 98.6178 26.9512H100.234C100.958 26.9512 101.496 27.0843 101.846 27.3513C102.197 27.6175 102.372 28.0176 102.372 28.5509C102.372 28.8867 102.282 29.1768 102.103 29.4199C101.923 29.6629 101.677 29.8454 101.364 29.9673V30.0017C101.491 30.0481 101.613 30.1513 101.729 30.3106C101.845 30.4699 101.949 30.6658 102.042 30.8969L102.78 32.7397C102.804 32.8212 102.815 32.8698 102.815 32.8878C102.815 32.9977 102.658 33.053 102.346 33.053H102.085C101.83 33.053 101.68 32.9977 101.633 32.8878L100.956 31.1841C100.851 30.9463 100.728 30.7818 100.586 30.689C100.444 30.5963 100.229 30.5499 99.9385 30.5499H99.4434V32.801C99.4434 32.9693 99.2901 33.053 98.9827 33.053H98.7651C98.4577 33.053 98.3044 32.9693 98.3044 32.801V32.8003ZM100.381 29.5672C100.601 29.5672 100.793 29.482 100.955 29.3107C101.117 29.1402 101.198 28.9383 101.198 28.7064C101.198 28.4574 101.119 28.2644 100.963 28.1283C100.807 27.9922 100.592 27.9241 100.32 27.9241H99.4419V29.5665H100.38L100.381 29.5672Z" fill="#344049"/>
<path d="M105.309 32.8006V27.1863C105.309 27.0128 105.465 26.9253 105.779 26.9253H105.996C106.304 26.9253 106.457 27.012 106.457 27.1863V32.8006C106.457 32.9741 106.304 33.0616 105.996 33.0616H105.779C105.466 33.0616 105.309 32.9748 105.309 32.8006Z" fill="#344049"/>
<path d="M110.015 32.9738C109.71 32.8931 109.475 32.7913 109.306 32.6694C109.161 32.5595 109.089 32.4608 109.089 32.374C109.089 32.2641 109.146 32.1265 109.262 31.9612C109.378 31.7959 109.474 31.7137 109.549 31.7137C109.583 31.7137 109.656 31.7458 109.766 31.8094C109.946 31.9021 110.122 31.9777 110.296 32.0352C110.47 32.0936 110.673 32.122 110.904 32.122C111.165 32.122 111.384 32.0599 111.56 31.935C111.737 31.8109 111.825 31.6239 111.825 31.3741C111.825 31.2178 111.78 31.0862 111.69 30.9785C111.601 30.8716 111.489 30.7818 111.356 30.7093C111.223 30.6367 111.038 30.5515 110.8 30.4528L110.495 30.3226C110.229 30.2067 110.006 30.0833 109.826 29.9532C109.647 29.8231 109.498 29.6473 109.383 29.4274C109.267 29.2076 109.209 28.9293 109.209 28.5928C109.209 28.2278 109.3 27.9167 109.483 27.6587C109.665 27.4007 109.91 27.2085 110.217 27.0806C110.525 26.9535 110.86 26.8892 111.225 26.8892C111.486 26.8892 111.738 26.9183 111.981 26.9759C112.224 27.0342 112.413 27.112 112.546 27.2107C112.668 27.2975 112.729 27.3842 112.729 27.4717C112.729 27.5757 112.679 27.7111 112.58 27.8756C112.482 28.0409 112.395 28.1231 112.319 28.1231C112.29 28.1231 112.244 28.1089 112.18 28.0798C112.117 28.0506 112.067 28.0274 112.032 28.0102C111.8 27.9115 111.554 27.8621 111.293 27.8621C110.981 27.8621 110.75 27.9242 110.602 28.0491C110.454 28.174 110.381 28.3318 110.381 28.5225C110.381 28.6908 110.424 28.8284 110.511 28.9353C110.598 29.0423 110.706 29.1283 110.833 29.1918C110.96 29.2554 111.148 29.3369 111.397 29.4349C111.728 29.568 112 29.6989 112.214 29.826C112.429 29.9532 112.613 30.1349 112.766 30.369C112.919 30.6038 112.996 30.9037 112.996 31.2687C112.996 31.8767 112.811 32.3336 112.44 32.6373C112.069 32.9417 111.605 33.0935 111.05 33.0935C110.661 33.0935 110.315 33.0531 110.011 32.9716L110.015 32.9738Z" fill="#344049"/>
</g>
<defs>
<clipPath id="clip0_3_1242">
<rect width="113" height="32.1913" fill="white" transform="translate(0 0.904297)"/>
</clipPath>
</defs>
</svg>
